<svg width="18" height="18" xmlns="http://www.w3.org/2000/svg">

 <g>
  <title>background</title>
  <rect fill="none" id="canvas_background" height="402" width="582" y="-1" x="-1"/>
 </g>
 <g>
  <title>Layer 1</title>
  <path id="svg_1" fill="#ffffff" d="m4.39705,8.52941c0,0.55229 0.44771,1 1,1c0.55228,0 1,-0.44771 1,-1l-2,0zm1,-3.7647l1,0l-1,0zm7.20595,0l1,0l0,0l-1,0zm-1,3.7647c0,0.55229 0.4477,1 1,1c0.5522,0 1,-0.44771 1,-1l-2,0zm-2.603,-7.52941l0,1l0,-1zm-7.94405,13.9613l0.99683,0.0795l-0.99683,-0.0795zm15.88815,0l0.9968,-0.0795l-0.9968,0.0795zm-0.4629,-5.80335l-0.9968,0.0795l0.9968,-0.0795zm-14.96242,0l-0.99683,-0.0795l0.99683,0.0795zm4.87827,-0.62854l0,-3.7647l-2,0l0,3.7647l2,0zm5.20595,-3.7647l0,3.7647l2,0l0,-3.7647l-2,0zm-2.603,-2.76471c1.3966,0 2.603,1.19596 2.603,2.76471l2,0c0,-2.58964 -2.0199,-4.76471 -4.603,-4.76471l0,2zm-2.60295,2.76471c0,-1.56875 1.20631,-2.76471 2.60295,-2.76471l0,-2c-2.58307,0 -4.60295,2.17507 -4.60295,4.76471l2,0zm-1.28776,1.94117l7.78141,0l0,-2l-7.78141,0l0,2zm10.37511,2.53157l0.4628,5.80335l1.9937,-0.159l-0.4629,-5.80335l-1.9936,0.159zm-0.3356,6.76255l-12.2976,0l0,2l12.2976,0l0,-2zm-13.09602,-0.9592l0.46284,-5.80335l-1.99367,-0.159l-0.462836,5.80335l1.993666,0.159zm0.79842,0.9592c-0.4888,0 -0.74664,-0.0025 -0.92083,-0.0277c-0.14033,-0.0203 -0.05534,-0.0335 0.02956,0.0629l-1.500978,1.3218c0.352519,0.4003 0.800338,0.539 1.184958,0.5947c0.35076,0.0508 0.77999,0.0483 1.20729,0.0483l0,-2zm-2.792086,-1.1182c-0.035799,0.4489 -0.072635,0.8847 -0.053942,1.2428c0.019959,0.3824 0.10772,0.8394 0.45378,1.2324l1.500978,-1.3218c0.07845,0.0891 0.05143,0.1557 0.04252,-0.0149c-0.01017,-0.1948 0.01005,-0.4744 0.05033,-0.9795l-1.993666,-0.159zm15.888086,0.159c0.0403,0.5051 0.0605,0.7847 0.0503,0.9795c-0.0089,0.1706 -0.0359,0.104 0.0426,0.0149l1.5009,1.3218c0.3461,-0.393 0.4339,-0.85 0.4538,-1.2324c0.0187,-0.3581 -0.0181,-0.7939 -0.0539,-1.2428l-1.9937,0.159zm-0.7984,2.9592c0.4273,0 0.8565,0.0025 1.2073,-0.0483c0.3846,-0.0557 0.8324,-0.1944 1.1849,-0.5947l-1.5009,-1.3218c0.0849,-0.0964 0.1699,-0.0832 0.0295,-0.0629c-0.1742,0.0252 -0.432,0.0277 -0.9208,0.0277l0,2zm-2.2581,-11.29412c0.8149,0 1.3252,0.00215 1.7004,0.05307c0.3427,0.0465 0.4352,0.11811 0.4839,0.16496l1.3862,-1.44173c-0.4684,-0.45031 -1.0279,-0.62728 -1.6012,-0.70507c-0.5408,-0.07338 -1.2107,-0.07123 -1.9693,-0.07123l0,2zm4.5873,2.37257c-0.0632,-0.79339 -0.1162,-1.48107 -0.229,-2.02796c-0.1178,-0.57095 -0.3248,-1.12314 -0.7878,-1.56831l-1.3862,1.44173c0.0541,0.05199 0.1383,0.15801 0.2152,0.53059c0.0818,0.39665 0.1268,0.93784 0.1942,1.78295l1.9936,-0.159zm-12.36871,-4.37257c-0.75859,0 -1.42851,-0.00215 -1.96931,0.07123c-0.57333,0.07779 -1.13279,0.25476 -1.60116,0.70507l1.38615,1.44173c0.04874,-0.04685 0.14121,-0.11846 0.48391,-0.16496c0.37525,-0.05092 0.88547,-0.05307 1.70041,-0.05307l0,-2zm-2.59367,4.53157c0.0674,-0.84511 0.11238,-1.3863 0.1942,-1.78295c0.07684,-0.37258 0.16108,-0.4786 0.21515,-0.53059l-1.38615,-1.44173c-0.46303,0.44517 -0.67001,0.99736 -0.787773,1.56831c-0.1128,0.54689 -0.165822,1.23457 -0.229097,2.02796l1.99367,0.159z"/>
 </g>
</svg>