<svg width="80" height="16" xmlns="http://www.w3.org/2000/svg">

 <g>
  <title>background</title>
  <rect fill="none" id="canvas_background" height="402" width="582" y="-1" x="-1"/>
 </g>
 <g>
  <title>Layer 1</title>
  <path id="svg_1" fill="#ffffff" d="m0,16l0,-16l10.8423,0l0,3.83099l-6.50092,0l0,2.65915l5.29871,0l0,3.56056l-5.29871,0l0,5.9493l-4.34138,0z"/>
  <path id="svg_2" fill="#ffffff" d="m12.545,16l0,-16l4.3413,0l0,16l-4.3413,0z"/>
  <path id="svg_3" fill="#ffffff" d="m19.773338,16l0,-16l4.3414,0l0,12.169l7.1688,0l0,3.831l-11.5102,0z"/>
  <path id="svg_4" fill="#ffffff" d="m44.752138,16l0,-8.42817l-2.6494,5.92677l-2.3154,0l-2.6494,-5.92677l0,8.42817l-4.3413,0l0,-16l4.7421,0l3.4063,7.52676l3.4286,-7.52676l4.7198,0l0,16l-4.3413,0z"/>
  <path id="svg_5" fill="#ffffff" d="m55.450038,0l4.8534,0l5.0316,16l-4.4082,0l-0.9573,-3.1324l-4.2078,0l-0.9351,3.1324l-4.4304,0l5.0538,-16zm3.8293,9.93803l-1.4026,-5.63381l-1.4694,5.63381l2.872,0z"/>
  <path id="svg_6" fill="#ffffff" d="m69.5807,0l2.872,5.04789l2.872,-5.04789l4.6753,0l-4.9648,8.11268l4.7867,7.88732l-4.6753,0l-2.6939,-4.8225l-2.6939,4.8225l-4.6976,0l4.7867,-7.88732l-4.9648,-8.11268l4.6976,0z"/>
  <path id="svg_7" d="m-3.327465,6.776408" opacity="0.5" stroke-opacity="null" stroke-width="null" stroke="null" fill="#181818"/>
 </g>
</svg>